<svg xmlns="http://www.w3.org/2000/svg" viewBox="0 0 200 200" fill="none">
  <path fill-rule="evenodd" clip-rule="evenodd" d="
    M100 18
    C104 35 114 60 120 78
    C124 88 130 94 140 102
    C150 110 155 120 152 128
    C148 136 138 148 126 154
    C120 158 112 170 108 178
    L100 186
    L92 178
    C88 170 80 158 74 154
    C62 148 52 136 48 128
    C45 120 50 110 60 102
    C70 94 76 88 80 78
    C86 60 96 35 100 18
    Z
    M100 94
    L124 118
    L118 154
    L82 154
    L76 118
    Z
  " fill="currentColor"/>
</svg>
